Coordinates
version=1
nRows=9
nColumns=36
inDegrees=yes

Units are S.I. units (second, meters, Newtons, ...)
If the header above contains a line with 'inDegrees', this indicates whether rotational values are in degrees (yes) or radians (no).

endheader
time	pelvis_tilt	pelvis_list	pelvis_rotation	pelvis_tx	pelvis_ty	pelvis_tz	hip_flexion_r	hip_adduction_r	hip_rotation_r	knee_angle_r	knee_angle_r_beta	ankle_angle_r	subtalar_angle_r	mtp_angle_r	hip_flexion_l	hip_adduction_l	hip_rotation_l	knee_angle_l	knee_angle_l_beta	ankle_angle_l	subtalar_angle_l	mtp_angle_l	lumbar_extension	lumbar_bending	lumbar_rotation	arm_flex_r	arm_add_r	arm_rot_r	elbow_flex_r	pro_sup_r	arm_flex_l	arm_add_l	arm_rot_l	elbow_flex_l	pro_sup_l
      8.54000000	    -10.95443002	     -2.11842693	     -4.24827896	     -0.61719737	      0.67704674	     -0.62378318	     96.69268155	     -7.52085221	      8.69170395	     92.32660549	      1.61140325	      9.40039367	     -6.42941246	     -7.49999987	     98.46850739	    -15.91094313	     14.35865466	     97.23287456	      1.69703380	     13.31768698	      2.36203566	     -7.49999987	    -35.24322191	     -0.93009628	      5.63981390	     66.38069314	    -20.78934424	     15.55342736	    117.66783063	    105.01329151	     72.93915272	     -9.72782984	     25.19638793	    109.75087085	    104.90374222
      8.55000000	     -9.72706132	     -1.89073702	     -4.14797305	     -0.62178069	      0.67693146	     -0.62363240	     95.87881052	     -7.60855188	      8.98268555	     92.34557315	      1.61173430	      9.13596603	     -6.22103862	     -7.49999987	     97.44167061	    -15.97443760	     13.96388216	     97.12172925	      1.69509395	     12.90338354	      2.51849509	     -7.49999987	    -35.74513741	     -1.21219190	      5.52433782	     65.03331299	    -20.59510793	     14.97910051	    117.87979371	    105.18202988	     72.10197449	     -9.74308813	     25.48888929	    110.05940863	    104.97989486
      8.56000000	     -8.67890665	     -1.77756613	     -4.07766839	     -0.62632810	      0.67806551	     -0.62345399	     95.02465110	     -7.67498271	      9.10590790	     92.15510628	      1.60841003	      8.82354958	     -6.06722561	     -7.49999987	     96.48071460	    -16.07981371	     13.64212125	     96.83882498	      1.69015634	     12.40841177	      2.66723598	     -7.49999987	    -36.18752343	     -1.37134827	      5.51892650	     63.60558199	    -20.36725793	     14.37458921	    118.13724315	    105.33635653	     71.06471059	     -9.70074246	     25.66490235	    110.51117821	    105.07599573
      8.57000000	     -7.76505738	     -1.81434748	     -4.02107658	     -0.63068266	      0.67997510	     -0.62328190	     94.13606012	     -7.72764708	      9.03551246	     91.85672594	      1.60320231	      8.52887447	     -5.93492556	     -7.49999987	     95.61352587	    -16.23162215	     13.43287381	     96.48495253	      1.68398010	     11.98098238	      2.83966344	     -7.49999987	    -36.50098399	     -1.35225084	      5.60258324	     62.07282712	    -20.14641791	     13.87912630	    118.31949945	    105.43460732	     69.80578749	     -9.68664139	     25.79694113	    111.01526985	    105.17241715
      8.58000000	     -6.93822766	     -1.89700303	     -3.96088925	     -0.63502812	      0.68235833	     -0.62304342	     93.22658461	     -7.76472741	      8.88403613	     91.44955207	      1.59609578	      8.17463484	     -5.72702636	     -7.49999987	     94.77350554	    -16.39365423	     13.24622228	     96.04179183	      1.67624549	     11.62614566	      3.01422094	     -7.49999987	    -36.75128770	     -1.31034549	      5.69150581	     60.47007396	    -19.79864619	     13.21649591	    118.48571119	    105.56185795	     68.44337959	     -9.62183637	     25.82872384	    111.44891271	    105.27245882
      8.59000000	     -6.19199842	     -1.98734317	     -3.90406251	     -0.63911456	      0.68450766	     -0.62291120	     92.40834208	     -7.81804997	      8.70885927	     91.08063542	      1.58965697	      7.84313153	     -5.46177598	     -7.49999987	     94.03289352	    -16.58082139	     13.02841865	     95.66652985	      1.66969593	     11.40084666	      3.14072761	     -7.49999987	    -36.83356674	     -1.16754962	      5.80457559	     58.81545418	    -19.51381485	     12.74894730	    118.52675213	    105.64163421	     66.88701984	     -9.60049846	     25.83890679	    111.82896246	    105.34709781
      8.60000000	     -5.48242360	     -2.06995923	     -3.86766412	     -0.64313612	      0.68673500	     -0.62286507	     91.58347771	     -7.86307924	      8.53759743	     90.63466027	      1.58187324	      7.56259954	     -5.20567126	     -7.49999987	     93.26823462	    -16.76226486	     12.81824177	     95.23314606	      1.66213196	     11.19721869	      3.27593830	     -7.49999987	    -36.88939630	     -1.02392077	      5.95497028	     57.19701992	    -19.11661387	     12.07675927	    118.58500814	    105.76196052	     65.27898494	     -9.49568768	     25.68235155	    112.14196647	    105.41286562
      8.61000000	     -4.71422276	     -2.12367650	     -3.77457343	     -0.64682380	      0.68873085	     -0.62311524	     90.74348508	     -8.01238027	      8.39757620	     90.28438372	      1.57575976	      7.40798576	     -5.10570757	     -7.49999987	     92.46550674	    -16.88872999	     12.57264523	     94.87181695	      1.65582557	     10.99851490	      3.43065143	     -7.49999987	    -36.89116061	     -0.85118528	      6.10842774	     55.56830564	    -18.94490471	     11.63752687	    118.54117319	    105.86568086	     63.63300688	     -9.40719892	     25.62084597	    112.29423733	    105.45547044
      8.62000000	     -3.90609522	     -2.12822828	     -3.63548125	     -0.65026369	      0.69041244	     -0.62359155	     89.90410652	     -8.24849414	      8.30029856	     89.98357431	      1.57050964	      7.19101098	     -4.99070147	     -7.49999987	     91.62343028	    -16.95728498	     12.28088718	     94.54916514	      1.65019424	     10.76185896	      3.63486881	     -7.49999987	    -36.86152355	     -0.70269391	      6.18941668	     53.95170833	    -18.84997805	     11.21976591	    118.42090330	    105.96569047	     61.90694494	     -9.13093295	     25.40842994	    112.30525122	    105.46182276
